<svg version="1.1" id="Layer_1" xmlns="http://www.w3.org/2000/svg" xmlns:xlink="http://www.w3.org/1999/xlink" x="0px" y="0px"
	 width="100%" viewBox="0 0 512 512" enable-background="new 0 0 512 512" xml:space="preserve">
<path fill="#FFAA55" opacity="1.000000" stroke="none" 
	d="
M1.242315,288.295471 
	C1.000000,267.645782 1.000000,247.291550 1.000000,226.468658 
	C2.835544,221.424789 2.019060,216.541336 2.653730,211.829269 
	C5.179568,193.076385 10.951842,175.220047 18.123276,157.817017 
	C27.945654,133.980911 41.011925,112.002914 57.534241,92.200470 
	C71.968788,74.900284 88.334206,59.629959 106.682892,46.450924 
	C127.108765,31.779936 149.231430,20.394346 172.933807,12.268288 
	C189.271072,6.667270 205.937271,1.916181 223.499466,1.968793 
	C224.175766,1.970819 224.816605,1.819838 225.704529,1.242314 
	C246.354233,1.000000 266.708466,1.000000 287.531342,1.000000 
	C292.575226,2.835536 297.458649,2.019065 302.170715,2.653732 
	C320.923584,5.179557 338.779907,10.951828 356.182922,18.123257 
	C380.019043,27.945608 401.997040,41.011868 421.799438,57.534172 
	C439.099609,71.968704 454.369934,88.334122 467.548981,106.682755 
	C482.220032,127.108582 493.605530,149.231277 501.731659,172.933609 
	C507.332703,189.270828 512.083862,205.937027 512.031250,223.499207 
	C512.029175,224.175598 512.179993,224.816605 512.757690,225.704575 
	C513.000000,246.354233 513.000000,266.708466 513.000000,287.531342 
	C511.164490,292.575226 511.981018,297.458679 511.346344,302.170746 
	C508.820496,320.923645 503.048187,338.779938 495.876709,356.182953 
	C486.054291,380.019043 472.988129,401.997070 456.465790,421.799500 
	C442.031219,439.099640 425.665863,454.370026 407.317169,467.549072 
	C386.891327,482.220032 364.768677,493.605682 341.066254,501.731659 
	C324.729004,507.332611 308.062866,512.083923 290.500671,512.031250 
	C289.824371,512.029236 289.183472,512.180176 288.295471,512.757690 
	C267.645782,513.000000 247.291550,513.000000 226.468658,513.000000 
	C221.424774,511.164490 216.541321,511.980988 211.829254,511.346344 
	C193.076370,508.820465 175.220062,503.048187 157.817047,495.876709 
	C133.980957,486.054321 112.002953,472.988098 92.200485,456.465851 
	C74.900276,442.031342 59.630013,425.665863 46.450981,407.317169 
	C31.780025,386.891296 20.394413,364.768677 12.268336,341.066315 
	C6.667307,324.729065 1.916232,308.062866 1.968797,290.500671 
	C1.970821,289.824341 1.819852,289.183472 1.242315,288.295471 
z"/>
<path fill="#000000" opacity="1.000000" stroke="none" 
	d="
M225.531342,1.000000 
	C227.043793,3.232008 225.194260,2.853093 224.125458,2.974007 
	C196.152847,6.138552 169.766968,14.389382 144.467331,26.727295 
	C124.157852,36.631645 105.692986,49.028065 88.622215,63.769012 
	C71.349655,78.684204 56.435558,95.590263 43.838745,114.564049 
	C25.268791,142.534790 12.374438,172.859848 5.873567,205.885239 
	C4.676857,211.964691 3.460478,218.005997 3.022346,224.182144 
	C2.942356,225.309723 2.457145,226.035980 1.330339,226.341263 
	C1.000000,152.404999 1.035663,78.809914 0.894927,5.215178 
	C0.887873,1.526425 1.757478,0.902649 5.276906,0.908478 
	C78.538681,1.029832 151.800705,1.000000 225.531342,1.000000 
z"/>
<path fill="#000000" opacity="1.000000" stroke="none" 
	d="
M513.000000,225.531342 
	C510.768036,227.043747 511.146973,225.194321 511.026062,224.125443 
	C507.861542,196.152832 499.610565,169.766998 487.272644,144.467361 
	C477.368317,124.157890 464.971985,105.693001 450.231018,88.622253 
	C435.315796,71.349716 418.409790,56.435566 399.436005,43.838757 
	C371.465240,25.268791 341.140198,12.374456 308.114807,5.873569 
	C302.035339,4.676857 295.994049,3.460488 289.817902,3.022350 
	C288.690308,2.942358 287.964020,2.457156 287.658752,1.330325 
	C361.595001,1.000000 435.190063,1.035660 508.784790,0.894933 
	C512.473450,0.887880 513.097351,1.757385 513.091553,5.276879 
	C512.970154,78.538666 513.000000,151.800705 513.000000,225.531342 
z"/>
<path fill="#000000" opacity="1.000000" stroke="none" 
	d="
M1.000000,288.468658 
	C3.232123,286.956116 2.853091,288.805878 2.973992,289.874573 
	C6.138540,317.847198 14.389406,344.233063 26.727314,369.532715 
	C36.631672,389.842194 49.028084,408.307037 63.769054,425.377777 
	C78.684235,442.650360 95.590302,457.564423 114.564072,470.161255 
	C142.534821,488.731171 172.859818,501.625671 205.885239,508.126495 
	C211.964706,509.323181 218.006012,510.539490 224.182159,510.977661 
	C225.309753,511.057648 226.035965,511.542908 226.341248,512.669678 
	C152.404999,513.000000 78.809937,512.964355 5.215204,513.105103 
	C1.526524,513.112122 0.902640,512.242615 0.908471,508.723114 
	C1.029837,435.461334 1.000000,362.199310 1.000000,288.468658 
z"/>
<path fill="#000000" opacity="1.000000" stroke="none" 
	d="
M288.468658,513.000000 
	C286.956085,510.767792 288.805939,511.146973 289.874603,511.026062 
	C317.847260,507.861572 344.233063,499.610565 369.532715,487.272675 
	C389.842224,477.368347 408.307068,464.971832 425.377869,450.230896 
	C442.650452,435.315704 457.564514,418.409637 470.161316,399.435822 
	C488.731232,371.465088 501.625763,341.140045 508.126465,308.114594 
	C509.323151,302.035156 510.539551,295.993835 510.977692,289.817688 
	C511.057678,288.690125 511.542938,287.963959 512.669678,287.658752 
	C513.000000,361.595001 512.964294,435.190063 513.105042,508.784790 
	C513.112061,512.473450 512.242615,513.097412 508.723114,513.091553 
	C435.461334,512.970215 362.199310,513.000000 288.468658,513.000000 
z"/>
<path fill="#FFFEFE" opacity="1.000000" stroke="none" 
	d="
M479.600586,205.375214 
	C483.305420,203.678177 486.600311,201.729385 490.016663,200.023849 
	C492.795013,198.636841 495.861542,198.075531 498.580902,199.948868 
	C501.374664,201.873474 500.736786,204.898865 500.309296,207.733978 
	C498.660767,218.667114 491.896027,225.825531 482.353668,230.080963 
	C477.442688,232.271011 476.542236,235.575012 476.037689,240.025055 
	C473.894653,258.925537 470.481018,277.566193 463.927094,295.507355 
	C456.546265,315.712128 447.323944,334.857574 430.931274,349.497467 
	C413.498047,365.066620 392.804932,371.638062 369.661499,369.907928 
	C358.300140,369.058594 349.474701,362.687195 342.030426,354.376617 
	C336.210815,347.879761 331.916107,340.366882 327.671906,332.139954 
	C324.119965,335.965820 320.872009,339.597473 317.483185,343.092560 
	C296.849945,364.372833 272.195190,374.206360 242.456482,369.005554 
	C210.491608,363.415436 196.287659,340.220856 200.771820,308.808868 
	C204.580597,282.128113 213.610092,256.472382 219.515121,230.166519 
	C222.619614,216.336594 225.697037,202.502258 223.074356,188.173172 
	C220.732910,175.380692 212.318268,171.886810 201.897156,179.435272 
	C197.850815,182.366241 193.892014,185.429779 189.727585,188.182159 
	C186.725433,190.166367 183.117035,191.406616 179.843140,189.430466 
	C176.776138,187.579239 177.134094,183.902695 177.328964,180.767563 
	C177.907944,171.453339 181.991898,163.876053 189.158005,157.949005 
	C202.977112,146.519257 219.002045,142.781067 236.428223,145.267929 
	C251.841599,147.467560 261.961548,159.302643 265.008820,177.078827 
	C267.227509,190.021286 265.402069,202.582275 262.424500,215.161682 
	C256.021820,242.211639 249.820099,269.311981 246.514343,296.962860 
	C245.784470,303.067657 245.038498,309.223877 245.765381,315.386414 
	C246.933670,325.291199 253.769104,331.552002 263.772888,332.103943 
	C277.337006,332.852264 288.806091,327.753143 299.133270,319.459625 
	C304.745453,314.952637 309.514130,309.632812 314.160950,304.163086 
	C316.098663,301.882263 316.588165,299.698090 315.818268,296.855896 
	C307.748108,267.064545 304.850555,236.648056 304.866333,205.873077 
	C304.871277,196.235306 306.337585,186.997223 310.928131,178.381790 
	C315.704529,169.417572 323.076996,164.075409 332.957581,161.940964 
	C339.063812,160.621857 345.219910,160.491791 351.355286,161.136124 
	C365.757599,162.648605 376.129883,173.678345 377.032990,188.514679 
	C378.266418,208.776993 373.790619,228.236969 368.200897,247.491608 
	C363.552582,263.503387 357.746124,279.091705 350.559387,294.149017 
	C349.611084,296.135895 348.900879,297.945557 349.857330,300.286743 
	C352.831360,307.566772 356.201843,314.604767 361.179779,320.751282 
	C371.502350,333.497131 386.197479,336.191345 400.442596,327.902222 
	C410.859070,321.841064 417.924561,312.610199 423.808899,302.410553 
	C435.096436,282.845093 440.987335,261.357666 445.895355,239.531342 
	C446.568146,236.539337 445.505432,235.559036 442.568634,234.908707 
	C418.303772,229.535294 402.174591,212.107132 399.614807,187.805832 
	C398.008820,172.560120 402.706604,159.214554 415.550629,150.119583 
	C428.319946,141.077530 442.695007,140.093674 456.959717,145.819885 
	C469.014008,150.658783 473.929688,161.570679 477.006531,173.432739 
	C479.722778,183.904739 478.739807,194.613815 479.600586,205.375214 
z"/>
<path fill="#FFFEFE" opacity="1.000000" stroke="none" 
	d="
M75.055893,155.017685 
	C93.299133,141.698441 113.056686,139.411713 133.673050,146.397690 
	C152.273575,152.700592 161.639084,168.660645 160.453384,189.641922 
	C159.431625,207.722107 147.436905,222.224533 129.603790,226.949905 
	C128.046707,227.362503 126.499641,227.812820 124.319717,228.420807 
	C129.264236,232.733978 133.784637,236.616577 138.238907,240.573624 
	C153.916168,254.500885 163.967575,271.189240 165.153168,292.755920 
	C166.470901,316.726471 157.241470,335.885986 138.629410,350.090332 
	C112.010612,370.405212 82.098442,377.166840 49.625477,367.171082 
	C28.334082,360.617218 15.444497,342.436066 13.979353,320.098572 
	C12.687891,300.409119 19.469572,283.833344 32.510742,269.561188 
	C38.344368,263.176880 45.442066,259.147736 54.554733,259.870972 
	C61.056599,260.387024 63.123341,262.521790 62.931774,268.989441 
	C62.752945,275.027100 61.286053,280.829559 59.695377,286.622070 
	C57.110966,296.033325 55.998302,305.572113 57.911663,315.267212 
	C60.093792,326.324158 66.880875,332.002777 78.124336,332.118561 
	C81.281425,332.151123 84.484138,332.132050 87.594170,331.661926 
	C112.431671,327.907654 123.080101,302.552307 109.131836,280.513916 
	C101.444412,268.367706 90.436012,259.380371 80.033669,249.789917 
	C68.341431,239.010193 58.367119,226.828003 55.578617,210.691849 
	C51.813847,188.906357 56.603909,169.645020 75.055893,155.017685 
z"/>
<path fill="#FFAB58" opacity="1.000000" stroke="none" 
	d="
M347.793121,228.712311 
	C345.680084,238.548248 343.360809,247.879761 339.369781,257.670776 
	C337.229370,251.663300 337.111603,246.113419 336.554504,240.688293 
	C335.024994,225.792877 333.821442,210.875183 335.904297,195.919891 
	C335.927277,195.755127 335.934204,195.585831 335.977631,195.426559 
	C337.051697,191.487778 337.261322,186.763275 342.629700,186.094040 
	C346.112946,185.659821 349.262817,189.818344 349.890991,196.034485 
	C350.985809,206.869400 349.753540,217.613327 347.793121,228.712311 
z"/>
<path fill="#FFAC59" opacity="1.000000" stroke="none" 
	d="
M445.482422,169.162949 
	C449.829254,171.354904 450.854340,175.334335 451.853302,179.146271 
	C453.827545,186.679855 452.976440,194.298599 452.067627,201.902618 
	C451.774994,204.351395 450.793243,204.031937 449.151459,203.087189 
	C440.854828,198.313004 435.042816,181.952026 438.504181,172.968613 
	C439.679535,169.918198 441.801392,168.505798 445.482422,169.162949 
z"/>
<path fill="#FFAB57" opacity="1.000000" stroke="none" 
	d="
M92.313461,191.638535 
	C88.385445,181.642838 89.798187,178.167648 99.535309,174.428284 
	C108.131889,171.126953 116.792610,170.962769 125.180550,175.233810 
	C129.845779,177.609268 132.426651,181.258652 132.174957,186.838196 
	C131.601868,199.542923 125.624443,209.625336 117.348495,218.707947 
	C115.780975,220.428253 114.501282,220.553757 112.806381,218.862366 
	C104.773102,210.845566 96.952187,202.684036 92.313461,191.638535 
z"/>
</svg>